<svg width="20" height="20" viewBox="0 0 20 20" fill="none" xmlns="http://www.w3.org/2000/svg">
<path d="M15.1171 18.0166C14.3838 18.2333 13.5171 18.3333 12.5005 18.3333H7.50045C6.48379 18.3333 5.61712 18.2333 4.88379 18.0166C5.06712 15.85 7.29212 14.1416 10.0005 14.1416C12.7088 14.1416 14.9338 15.85 15.1171 18.0166Z" stroke="#8E8E8E" stroke-width="1.5" stroke-linecap="round" stroke-linejoin="round"/>
<path d="M12.5003 1.6665H7.50033C3.33366 1.6665 1.66699 3.33317 1.66699 7.49984V12.4998C1.66699 15.6498 2.61699 17.3748 4.88366 18.0165C5.06699 15.8498 7.29199 14.1415 10.0003 14.1415C12.7087 14.1415 14.9337 15.8498 15.117 18.0165C17.3837 17.3748 18.3337 15.6498 18.3337 12.4998V7.49984C18.3337 3.33317 16.667 1.6665 12.5003 1.6665ZM10.0003 11.8082C8.35033 11.8082 7.01699 10.4665 7.01699 8.81652C7.01699 7.16652 8.35033 5.83317 10.0003 5.83317C11.6503 5.83317 12.9837 7.16652 12.9837 8.81652C12.9837 10.4665 11.6503 11.8082 10.0003 11.8082Z" stroke="#8E8E8E" stroke-width="1.5" stroke-linecap="round" stroke-linejoin="round"/>
<path d="M12.9833 8.81684C12.9833 10.4668 11.6499 11.8085 9.99994 11.8085C8.34994 11.8085 7.0166 10.4668 7.0166 8.81684C7.0166 7.16684 8.34994 5.8335 9.99994 5.8335C11.6499 5.8335 12.9833 7.16684 12.9833 8.81684Z" stroke="#8E8E8E" stroke-width="1.5" stroke-linecap="round" stroke-linejoin="round"/>
</svg>
